<svg width="16" height="17" viewBox="0 0 16 17" fill="none" xmlns="http://www.w3.org/2000/svg">
<g id="icon/16/home">
<path id="Vector" fill-rule="evenodd" clip-rule="evenodd" d="M7.23223 2.756C7.4538 2.58983 7.72328 2.5 8.00023 2.5C8.27719 2.5 8.54667 2.58983 8.76823 2.756L13.2482 6.116C13.4072 6.23523 13.5362 6.38983 13.6251 6.56757C13.714 6.7453 13.7602 6.94129 13.7602 7.14V13.22C13.7602 13.5595 13.6254 13.885 13.3853 14.1251C13.1453 14.3651 12.8197 14.5 12.4802 14.5H3.52023C3.18076 14.5 2.85518 14.3651 2.61514 14.1251C2.37509 13.885 2.24023 13.5595 2.24023 13.22V7.14C2.24023 6.94129 2.2865 6.7453 2.37537 6.56757C2.46424 6.38983 2.59326 6.23523 2.75223 6.116L7.23223 2.756Z" fill="#808080"/>
<rect id="Rectangle 383" x="7.5" y="10.5" width="1" height="4" fill="white"/>
</g>
</svg>
