<svg width="42" height="42" viewBox="0 0 42 42" fill="none" xmlns="http://www.w3.org/2000/svg">
<g id="hugeicons:energy-ellipse">
<g id="Group">
<path id="Vector" d="M21.5 39C31.165 39 39 31.165 39 21.5C39 11.835 31.165 4 21.5 4C11.835 4 4 11.835 4 21.5C4 31.165 11.835 39 21.5 39Z" stroke="#03428E" stroke-width="1.5" stroke-linecap="round" stroke-linejoin="round"/>
<g id="Group_2">
<path id="Vector_2" d="M26.3407 19.6973L29.6432 29.6026C29.6432 29.6026 29.6432 29.6026 29.6433 29.6026C29.6811 29.7162 29.6961 29.8361 29.6876 29.9554C29.6791 30.0748 29.6471 30.1914 29.5936 30.2984C29.54 30.4054 29.4659 30.5009 29.3754 30.5793C29.285 30.6577 29.18 30.7175 29.0664 30.7553C28.9528 30.7931 28.8329 30.8082 28.7136 30.7997C28.5942 30.7911 28.4776 30.7592 28.3706 30.7056C28.2635 30.6521 28.1681 30.5779 28.0897 30.4875C28.0113 30.397 27.9515 30.292 27.9137 30.1785L27.9137 30.1784L27.218 28.0916L27.1985 28.0331L27.1495 27.9957L21.1212 23.4031L21 23.3108L20.8788 23.4031L14.8505 27.9957L14.8015 28.0331L14.782 28.0916L14.0863 30.1784L14.0863 30.1785C14.0485 30.292 13.9887 30.397 13.9103 30.4875C13.8319 30.5779 13.7365 30.6521 13.6294 30.7056L13.7189 30.8845L13.6294 30.7056C13.5224 30.7592 13.4058 30.7911 13.2864 30.7997C13.1671 30.8082 13.0472 30.7931 12.9336 30.7553C12.82 30.7175 12.715 30.6577 12.6246 30.5793C12.5341 30.5009 12.46 30.4054 12.4064 30.2984C12.3529 30.1914 12.3209 30.0748 12.3124 29.9554C12.3039 29.836 12.319 29.7161 12.3568 29.6026L15.6593 19.6962L15.665 19.6791L15.6675 19.6613L15.9486 17.6956L15.9813 17.4672H15.7507H12.1105C11.9219 17.4671 11.7379 17.4084 11.584 17.2993C11.4302 17.1901 11.314 17.0359 11.2515 16.8579C11.189 16.6799 11.1832 16.4869 11.2351 16.3055C11.287 16.1242 11.3938 15.9635 11.5408 15.8454C11.5409 15.8454 11.5409 15.8453 11.541 15.8453L17.0957 11.4006L17.0959 11.4005C17.2577 11.2707 17.4589 11.2 17.6663 11.2H17.6664H24.3336C24.5487 11.2 24.7473 11.2745 24.9056 11.4008C24.9056 11.4008 24.9056 11.4008 24.9056 11.4008L30.459 15.8453C30.459 15.8453 30.4591 15.8453 30.4591 15.8453C30.6062 15.9634 30.713 16.1242 30.7649 16.3055C30.8168 16.4869 30.811 16.6799 30.7485 16.8579C30.686 17.0359 30.5698 17.1901 30.416 17.2993C30.2621 17.4084 30.0782 17.4671 29.8895 17.4672H26.2493H26.0187L26.0514 17.6955L26.3325 19.6624L26.335 19.6802L26.3407 19.6973ZM17.5342 20.6706L17.3117 20.5012L17.2233 20.7665L16.0298 24.3468L15.8247 24.9622L16.3408 24.5692L19.2877 22.3245L19.4966 22.1654L19.2877 22.0063L17.5342 20.6706ZM24.7767 20.7665L24.6883 20.5012L24.4658 20.6706L22.7123 22.0063L22.5034 22.1654L22.7123 22.3245L25.6592 24.5692L26.1753 24.9622L25.9702 24.3468L24.7767 20.7665ZM24.2027 17.639L24.1782 17.4672H24.0047H17.9953H17.8218L17.7973 17.639L17.6929 18.3701L17.6762 18.4863L17.7696 18.5575L20.8788 20.9266L21 21.019L21.1212 20.9266L24.2304 18.5575L24.3238 18.4863L24.3071 18.3701L24.2027 17.639ZM23.5682 13.1942L23.5437 13.0224H23.3702H18.6298H18.4563L18.4318 13.1942L18.1151 15.4166L18.0826 15.6448H18.3131H23.6869H23.9174L23.8849 15.4166L23.5682 13.1942ZM16.3676 14.7598L16.4393 14.2594L16.0446 14.5753L15.1534 15.2887L14.7085 15.6448H15.2784H16.0674H16.2407L16.2653 15.4732L16.3676 14.7598ZM25.9553 14.5752L25.5599 14.2591L25.6325 14.7601L25.7358 15.4735L25.7606 15.6448H25.9338H26.7227H27.2932L26.8476 15.2886L25.9553 14.5752Z" fill="#03428E" stroke="#DEEDFB" stroke-width="0.4"/>
</g>
</g>
</g>
</svg>
