<svg width="42" height="42" viewBox="0 0 42 42" fill="none" xmlns="http://www.w3.org/2000/svg">
<g id="hugeicons:energy-ellipse">
<g id="Group">
<path id="Vector" d="M21.5 39C31.165 39 39 31.165 39 21.5C39 11.835 31.165 4 21.5 4C11.835 4 4 11.835 4 21.5C4 31.165 11.835 39 21.5 39Z" stroke="#03428E" stroke-width="1.5" stroke-linecap="round" stroke-linejoin="round"/>
<g id="Group 427319799">
<path id="Vector_2" d="M19 21.5L17.5 28.5M24 21.5L25.5 28.5M13.5 25H29.5M24.5 32.5C23.44 31.327 23.5 29.5 23.5 28.5M18.5 32.5C19.56 31.327 19.5 29.5 19.5 28.5M11.5 32.5H31.5M12.49 25.827L13.556 22.827C13.785 22.186 13.899 21.865 14.156 21.683C14.416 21.5 14.755 21.5 15.434 21.5H27.568C28.247 21.5 28.586 21.5 28.844 21.683C29.102 21.865 29.216 22.186 29.444 22.827L30.512 25.827C30.945 27.044 31.162 27.652 30.863 28.076C30.566 28.5 29.923 28.5 28.636 28.5H14.365C13.079 28.5 12.435 28.5 12.138 28.076C11.84 27.652 12.057 27.044 12.49 25.827Z" stroke="#03428E" stroke-width="1.5" stroke-linecap="round" stroke-linejoin="round"/>
<path id="Vector_3" d="M18.596 14.6985L21.5956 10.6562C21.8304 10.3398 22.27 10.5362 22.27 10.9577V14.0865C22.27 14.3385 22.4425 14.5433 22.6555 14.5433H24.1137C24.4453 14.5433 24.6223 15.0068 24.4033 15.3015L21.4036 19.3438C21.1688 19.6602 20.7293 19.4638 20.7293 19.0423V15.9135C20.7293 15.6615 20.5568 15.4567 20.3437 15.4567H18.8855C18.5548 15.4567 18.3777 14.9933 18.5968 14.6985" stroke="#03428E" stroke-width="1.5" stroke-linecap="round" stroke-linejoin="round"/>
</g>
</g>
</g>
</svg>
