<svg width="16" height="17" viewBox="0 0 16 17" fill="none" xmlns="http://www.w3.org/2000/svg">
<path id="Vector" d="M14.6927 8.68151C14.5622 8.53291 14.4902 8.34187 14.4902 8.14407C14.4902 7.94627 14.5622 7.75524 14.6927 7.60664L15.735 6.43405C15.8499 6.30594 15.9212 6.14473 15.9387 5.97357C15.9563 5.80241 15.9192 5.63008 15.8327 5.48132L14.2041 2.66386C14.1186 2.51527 13.9883 2.39748 13.8318 2.3273C13.6754 2.25711 13.5007 2.23811 13.3328 2.27299L11.802 2.58243C11.6072 2.62268 11.4044 2.59024 11.2319 2.49123C11.0594 2.39222 10.929 2.23349 10.8655 2.04499L10.3688 0.554829C10.3142 0.393093 10.2101 0.252615 10.0713 0.153252C9.93247 0.0538893 9.76594 0.000666743 9.59522 0.00110741H6.33804C6.16047 -0.00816095 5.98474 0.040948 5.8377 0.140934C5.69067 0.240919 5.5804 0.386285 5.52374 0.554829L5.06773 2.04499C5.00422 2.23349 4.87391 2.39222 4.70139 2.49123C4.52888 2.59024 4.32609 2.62268 4.13129 2.58243L2.5597 2.27299C2.40055 2.2505 2.2383 2.27562 2.09339 2.34517C1.94849 2.41473 1.82741 2.52561 1.7454 2.66386L0.116812 5.48132C0.0281836 5.62843 -0.0116664 5.79978 0.00295878 5.9709C0.0175839 6.14201 0.0859353 6.30412 0.198241 6.43405L1.2324 7.60664C1.36295 7.75524 1.43494 7.94627 1.43494 8.14407C1.43494 8.34187 1.36295 8.53291 1.2324 8.68151L0.198241 9.8541C0.0859353 9.98403 0.0175839 10.1461 0.00295878 10.3172C-0.0116664 10.4884 0.0281836 10.6597 0.116812 10.8068L1.7454 13.6243C1.83099 13.7729 1.96129 13.8907 2.11774 13.9608C2.2742 14.031 2.44881 14.05 2.6167 14.0152L4.14758 13.7057C4.34237 13.6655 4.54516 13.6979 4.71768 13.7969C4.8902 13.8959 5.02051 14.0547 5.08402 14.2432L5.58074 15.7333C5.6374 15.9019 5.74767 16.0472 5.89471 16.1472C6.04174 16.2472 6.21747 16.2963 6.39504 16.287H9.65222C9.82294 16.2875 9.98947 16.2343 10.1283 16.1349C10.2671 16.0355 10.3712 15.8951 10.4258 15.7333L10.9225 14.2432C10.986 14.0547 11.1164 13.8959 11.2889 13.7969C11.4614 13.6979 11.6642 13.6655 11.859 13.7057L13.3898 14.0152C13.5577 14.05 13.7324 14.031 13.8888 13.9608C14.0453 13.8907 14.1756 13.7729 14.2611 13.6243L15.8897 10.8068C15.9762 10.6581 16.0133 10.4857 15.9958 10.3146C15.9782 10.1434 15.9069 9.98221 15.792 9.8541L14.6927 8.68151ZM13.4794 9.77267L14.1309 10.5055L13.0886 12.3133L12.1277 12.1178C11.5412 11.998 10.9311 12.0976 10.4133 12.3978C9.89539 12.698 9.50577 13.1779 9.31836 13.7464L9.00893 14.6584H6.92433L6.63118 13.7301C6.44378 13.1616 6.05416 12.6817 5.53628 12.3815C5.01841 12.0813 4.40833 11.9817 3.82186 12.1016L2.86099 12.297L1.80241 10.4974L2.45384 9.76452C2.85444 9.31664 3.07591 8.73683 3.07591 8.13593C3.07591 7.53503 2.85444 6.95522 2.45384 6.50734L1.80241 5.77447L2.8447 3.98302L3.80557 4.17845C4.39205 4.29833 5.00213 4.19871 5.52 3.89849C6.03787 3.59828 6.42749 3.11836 6.6149 2.54986L6.92433 1.6297H9.00893L9.31836 2.558C9.50577 3.12651 9.89539 3.60642 10.4133 3.90664C10.9311 4.20685 11.5412 4.30647 12.1277 4.18659L13.0886 3.99116L14.1309 5.7989L13.4794 6.53177C13.0833 6.97862 12.8646 7.55508 12.8646 8.15222C12.8646 8.74936 13.0833 9.32581 13.4794 9.77267ZM7.96663 4.88689C7.32242 4.88689 6.69268 5.07792 6.15703 5.43582C5.62139 5.79373 5.20391 6.30243 4.95738 6.8976C4.71085 7.49277 4.64635 8.14769 4.77203 8.77952C4.89771 9.41135 5.20793 9.99173 5.66345 10.4473C6.11898 10.9028 6.69935 11.213 7.33118 11.3387C7.96302 11.4644 8.61793 11.3998 9.2131 11.1533C9.80827 10.9068 10.317 10.4893 10.6749 9.95367C11.0328 9.41803 11.2238 8.78828 11.2238 8.14407C11.2238 7.28021 10.8806 6.45174 10.2698 5.84089C9.65897 5.23005 8.83049 4.88689 7.96663 4.88689ZM7.96663 9.77267C7.64453 9.77267 7.32965 9.67715 7.06183 9.4982C6.79401 9.31925 6.58527 9.0649 6.46201 8.76731C6.33874 8.46972 6.30649 8.14227 6.36933 7.82635C6.43217 7.51043 6.58728 7.22025 6.81504 6.99248C7.0428 6.76472 7.33299 6.60961 7.64891 6.54677C7.96482 6.48393 8.29228 6.51618 8.58987 6.63945C8.88745 6.76271 9.1418 6.97146 9.32076 7.23928C9.49971 7.5071 9.59522 7.82197 9.59522 8.14407C9.59522 8.576 9.42364 8.99024 9.11822 9.29566C8.8128 9.60108 8.39856 9.77267 7.96663 9.77267Z" fill="#808080"/>
</svg>
