<svg width="28" height="28" viewBox="0 0 28 28" fill="none" xmlns="http://www.w3.org/2000/svg">
<g id="octicon:file-added-24">
<path id="Vector" d="M14 9.625C14.2321 9.625 14.4546 9.71719 14.6187 9.88128C14.7828 10.0454 14.875 10.2679 14.875 10.5V13.125H17.5C17.7321 13.125 17.9546 13.2172 18.1187 13.3813C18.2828 13.5454 18.375 13.7679 18.375 14C18.375 14.2321 18.2828 14.4546 18.1187 14.6187C17.9546 14.7828 17.7321 14.875 17.5 14.875H14.875V17.5C14.875 17.7321 14.7828 17.9546 14.6187 18.1187C14.4546 18.2828 14.2321 18.375 14 18.375C13.7679 18.375 13.5454 18.2828 13.3813 18.1187C13.2172 17.9546 13.125 17.7321 13.125 17.5V14.875H10.5C10.2679 14.875 10.0454 14.7828 9.88128 14.6187C9.71719 14.4546 9.625 14.2321 9.625 14C9.625 13.7679 9.71719 13.5454 9.88128 13.3813C10.0454 13.2172 10.2679 13.125 10.5 13.125H13.125V10.5C13.125 10.2679 13.2172 10.0454 13.3813 9.88128C13.5454 9.71719 13.7679 9.625 14 9.625Z" fill="#3069B3"/>
<path id="Vector_2" d="M3.5 3.49984C3.5 2.881 3.74583 2.28751 4.18342 1.84992C4.621 1.41234 5.21449 1.1665 5.83333 1.1665H17.479C18.0978 1.16664 18.6912 1.41256 19.1287 1.85017L23.8163 6.53784C24.2539 6.97532 24.4999 7.56872 24.5 8.1875V24.4998C24.5 25.1187 24.2542 25.7122 23.8166 26.1498C23.379 26.5873 22.7855 26.8332 22.1667 26.8332H5.83333C5.21449 26.8332 4.621 26.5873 4.18342 26.1498C3.74583 25.7122 3.5 25.1187 3.5 24.4998V3.49984ZM5.83333 2.9165C5.67862 2.9165 5.53025 2.97796 5.42085 3.08736C5.31146 3.19675 5.25 3.34513 5.25 3.49984V24.4998C5.25 24.6545 5.31146 24.8029 5.42085 24.9123C5.53025 25.0217 5.67862 25.0832 5.83333 25.0832H22.1667C22.3214 25.0832 22.4697 25.0217 22.5791 24.9123C22.6885 24.8029 22.75 24.6545 22.75 24.4998V8.1875C22.7501 8.11085 22.7352 8.03492 22.7059 7.96405C22.6767 7.89319 22.6338 7.82878 22.5797 7.7745L17.892 3.08684C17.8377 3.0327 17.7733 2.98979 17.7025 2.96057C17.6316 2.93134 17.5557 2.91637 17.479 2.9165H5.83333Z" fill="#3069B3"/>
</g>
</svg>
