<svg width="36" height="36" viewBox="0 0 36 36" fill="none" xmlns="http://www.w3.org/2000/svg">
<g id="powerplant_icon01 1" clip-path="url(#clip0_1_1221)">
<g id="Group">
<path id="Vector" d="M17.4367 13.4655C17.0515 12.5014 16.7051 11.2369 16.7051 9.85992C16.7051 8.32574 16.9026 6.95701 17.2092 5.98869C17.3635 5.50162 17.5366 5.14382 17.7053 4.91853C17.8806 4.68442 17.9877 4.67188 18.0064 4.67188C18.0251 4.67188 18.1321 4.68442 18.3074 4.91853C18.4761 5.14382 18.6493 5.50162 18.8035 5.98869C19.1102 6.95701 19.3077 8.32574 19.3077 9.85992C19.3077 11.2357 18.9496 12.5001 18.5568 13.4658C18.3756 13.4297 18.188 13.4108 17.9962 13.4108C17.8049 13.4108 17.6176 13.4296 17.4367 13.4655Z" stroke="#03428E" stroke-linecap="round" stroke-linejoin="round"/>
<path id="Vector_2" d="M20.3415 18.1441C20.5721 17.8964 20.7537 17.6044 20.8686 17.2815C21.9691 17.4837 23.3371 17.8789 24.6248 18.6159C26.0382 19.4251 27.1961 20.3041 27.9278 21.0592C28.2966 21.4396 28.5346 21.7657 28.6521 22.0159C28.746 22.2158 28.7339 22.2974 28.7288 22.3154C28.7164 22.327 28.6341 22.3958 28.3431 22.4103C28.0355 22.4257 27.6055 22.3721 27.0718 22.2365C26.0104 21.9668 24.6419 21.3994 23.229 20.5907L20.3415 18.1441ZM20.3415 18.1441C21.0201 18.9505 21.9832 19.8773 23.229 20.5906L20.3415 18.1441Z" stroke="#03428E" stroke-linecap="round" stroke-linejoin="round"/>
<path id="Vector_3" d="M11.3756 18.616C9.96194 19.4251 8.80413 20.3041 8.07236 21.0592C7.70364 21.4396 7.46559 21.7658 7.34804 22.016C7.25422 22.2156 7.26615 22.2973 7.2712 22.3155C7.28397 22.3273 7.36657 22.3958 7.65686 22.4103C7.96444 22.4257 8.39446 22.3721 8.92819 22.2366C9.9896 21.9669 11.3581 21.3997 12.771 20.5911L11.3756 18.616ZM11.3756 18.616C12.6597 17.8811 14.0231 17.4865 15.122 17.2834M11.3756 18.616L15.122 17.2834M15.122 17.2834C15.238 17.6083 15.4215 17.9017 15.6543 18.1501M15.122 17.2834L15.6543 18.1501M15.6543 18.1501C14.9757 18.9554 14.0143 19.8794 12.771 20.5911L15.6543 18.1501ZM7.27212 22.3184C7.27251 22.3191 7.27266 22.3195 7.27264 22.3195L7.27212 22.3184Z" stroke="#03428E" stroke-linecap="round" stroke-linejoin="round"/>
<path id="Vector_4" d="M18.8685 16.3012C18.8685 16.6916 18.5156 17.0712 17.999 17.0712C17.4821 17.0712 17.1289 16.6914 17.1289 16.3012C17.1289 15.9107 17.482 15.5308 17.999 15.5308C18.5158 15.5308 18.8685 15.9102 18.8685 16.3012Z" stroke="#03428E" stroke-linecap="round" stroke-linejoin="round"/>
<path id="Vector_5" d="M19.5 29.7564V30.5H16.5V29.7564L17.9336 19.5H18.0659L19.5 29.7564Z" stroke="#03428E" stroke-linecap="round" stroke-linejoin="round"/>
</g>
<path id="Vector_6" d="M34.765 18.0002C34.765 27.2589 27.2594 34.7645 18.0007 34.7645C8.74198 34.7645 1.23633 27.2589 1.23633 18.0002C1.23633 8.74149 8.74198 1.23584 18.0007 1.23584C27.2594 1.23584 34.765 8.74149 34.765 18.0002Z" stroke="#03428E" stroke-width="1.5" stroke-miterlimit="10"/>
</g>
<defs>
<clipPath id="clip0_1_1221">
<rect width="36" height="36" fill="white"/>
</clipPath>
</defs>
</svg>
