<svg width="18" height="19" viewBox="0 0 18 19" fill="none" xmlns="http://www.w3.org/2000/svg">
<path id="Vector" d="M16.5293 10.1046C16.3824 9.93741 16.3014 9.7225 16.3014 9.49997C16.3014 9.27745 16.3824 9.06253 16.5293 8.89536L17.7019 7.5762C17.8311 7.43207 17.9113 7.25072 17.9311 7.05816C17.9508 6.8656 17.9091 6.67174 17.8118 6.50438L15.9797 3.33473C15.8834 3.16756 15.7368 3.03506 15.5608 2.9561C15.3848 2.87714 15.1883 2.85576 14.9995 2.89501L13.2772 3.24312C13.0581 3.2884 12.8299 3.25191 12.6358 3.14052C12.4418 3.02913 12.2952 2.85056 12.2237 2.63851L11.6649 0.962073C11.6034 0.78012 11.4864 0.622083 11.3302 0.510299C11.174 0.398516 10.9867 0.338641 10.7946 0.339136H7.13029C6.93053 0.32871 6.73284 0.383957 6.56742 0.496441C6.402 0.608925 6.27795 0.772462 6.21421 0.962073L5.7012 2.63851C5.62975 2.85056 5.48315 3.02913 5.28907 3.14052C5.09499 3.25191 4.86685 3.2884 4.64771 3.24312L2.87966 2.89501C2.70062 2.86971 2.51809 2.89796 2.35507 2.97621C2.19205 3.05446 2.05583 3.1792 1.96358 3.33473L0.131413 6.50438C0.0317066 6.66987 -0.0131247 6.86265 0.00332863 7.05515C0.0197819 7.24765 0.0966773 7.43003 0.223021 7.5762L1.38645 8.89536C1.53331 9.06253 1.61431 9.27745 1.61431 9.49997C1.61431 9.7225 1.53331 9.93741 1.38645 10.1046L0.223021 11.4237C0.0966773 11.5699 0.0197819 11.7523 0.00332863 11.9448C-0.0131247 12.1373 0.0317066 12.3301 0.131413 12.4956L1.96358 15.6652C2.05986 15.8324 2.20645 15.9649 2.38246 16.0438C2.55847 16.1228 2.75492 16.1442 2.94379 16.1049L4.66603 15.7568C4.88517 15.7115 5.11331 15.748 5.30739 15.8594C5.50147 15.9708 5.64807 16.1494 5.71952 16.3614L6.27833 18.0379C6.34207 18.2275 6.46613 18.391 6.63154 18.5035C6.79696 18.616 6.99465 18.6712 7.19442 18.6608H10.8588C11.0508 18.6613 11.2382 18.6014 11.3943 18.4896C11.5505 18.3779 11.6676 18.2198 11.729 18.0379L12.2878 16.3614C12.3593 16.1494 12.5059 15.9708 12.7 15.8594C12.8941 15.748 13.1222 15.7115 13.3413 15.7568L15.0636 16.1049C15.2524 16.1442 15.4489 16.1228 15.6249 16.0438C15.8009 15.9649 15.9475 15.8324 16.0438 15.6652L17.876 12.4956C17.9732 12.3282 18.015 12.1343 17.9952 11.9418C17.9755 11.7492 17.8952 11.5679 17.766 11.4237L16.5293 10.1046ZM15.1643 11.3321L15.8972 12.1566L14.7246 14.1903L13.6436 13.9705C12.9839 13.8356 12.2975 13.9477 11.7149 14.2854C11.1323 14.6232 10.694 15.1631 10.4832 15.8026L10.135 16.8286H7.78987L7.46008 15.7843C7.24925 15.1447 6.81093 14.6048 6.22832 14.2671C5.64571 13.9293 4.95938 13.8173 4.29959 13.9521L3.21861 14.172L2.02771 12.1475L2.76057 11.323C3.21124 10.8191 3.4604 10.1668 3.4604 9.49081C3.4604 8.8148 3.21124 8.16251 2.76057 7.65864L2.02771 6.83417L3.20029 4.81879L4.28127 5.03865C4.94105 5.17351 5.62739 5.06144 6.21 4.72369C6.79261 4.38595 7.23093 3.84605 7.44176 3.20648L7.78987 2.1713H10.135L10.4832 3.21564C10.694 3.85521 11.1323 4.39511 11.7149 4.73286C12.2975 5.0706 12.9839 5.18267 13.6436 5.04781L14.7246 4.82795L15.8972 6.86165L15.1643 7.68613C14.7187 8.18884 14.4727 8.83735 14.4727 9.50913C14.4727 10.1809 14.7187 10.8294 15.1643 11.3321ZM8.96246 5.83564C8.23772 5.83564 7.52926 6.05055 6.92666 6.45319C6.32407 6.85583 5.8544 7.42812 5.57706 8.09769C5.29971 8.76726 5.22714 9.50404 5.36853 10.2148C5.50992 10.9257 5.85892 11.5786 6.37138 12.091C6.88385 12.6035 7.53677 12.9525 8.24758 13.0939C8.95839 13.2353 9.69517 13.1627 10.3647 12.8854C11.0343 12.608 11.6066 12.1384 12.0092 11.5358C12.4119 10.9332 12.6268 10.2247 12.6268 9.49997C12.6268 8.52813 12.2407 7.59609 11.5535 6.9089C10.8663 6.2217 9.9343 5.83564 8.96246 5.83564ZM8.96246 11.3321C8.60009 11.3321 8.24586 11.2247 7.94456 11.0234C7.64326 10.822 7.40843 10.5359 7.26976 10.2011C7.13108 9.86633 7.0948 9.49794 7.1655 9.14254C7.23619 8.78713 7.41069 8.46067 7.66692 8.20444C7.92315 7.9482 8.24962 7.77371 8.60502 7.70301C8.96043 7.63232 9.32881 7.6686 9.6636 7.80727C9.99838 7.94594 10.2845 8.18078 10.4859 8.48208C10.6872 8.78337 10.7946 9.1376 10.7946 9.49997C10.7946 9.98589 10.6016 10.4519 10.258 10.7955C9.9144 11.1391 9.44838 11.3321 8.96246 11.3321Z" fill="#031B4B"/>
</svg>
