<svg width="40" height="40" viewBox="0 0 40 40" fill="none" xmlns="http://www.w3.org/2000/svg">
<g id="Group 34823">
<g id="Group 427319788">
<circle id="Ellipse 493" cx="20" cy="20" r="20" fill="#03428E"/>
<path id="Vector" d="M9.92046 28.685H22.7277C22.6387 30.402 21.5322 31.496 20.0062 31.496C18.4673 31.496 17.3733 30.402 17.2713 28.685H15.2873C15.3893 31.127 17.3098 33.2759 20.0062 33.2759C22.6897 33.2759 24.6101 31.127 24.7121 28.685H30.079C31.2875 28.685 32 28.0621 32 27.1461C32 25.8741 30.715 24.7296 29.6085 23.5976C28.769 22.7202 28.54 20.9142 28.451 19.4518C28.3496 14.4403 27.0651 11.1969 23.6692 9.97592C23.2491 8.32299 21.8757 7 20.0062 7C18.1232 7 16.7628 8.32299 16.3303 9.97592C12.9474 11.1969 11.6499 14.4403 11.5609 19.4512C11.4594 20.9142 11.2429 22.7202 10.3909 23.5976C9.29695 24.7296 8 25.8741 8 27.1466C8 28.0621 8.72499 28.685 9.92046 28.685ZM10.4799 26.764V26.6121C10.7089 26.2306 11.4594 25.4926 12.1334 24.7421C13.0364 23.7246 13.4683 22.0967 13.5834 19.6042C13.6849 14.0583 15.3383 12.2784 17.5258 11.6934C17.8438 11.6169 18.0093 11.4514 18.0218 11.1334C18.0728 9.79847 18.8233 8.86945 20.0062 8.86945C21.1762 8.86945 21.9392 9.79793 21.9777 11.1334C21.9902 11.4514 22.1682 11.6164 22.4862 11.6929C24.6611 12.2784 26.3146 14.0589 26.4291 19.6042C26.5306 22.0967 26.9631 23.7246 27.8791 24.7421C28.54 25.4926 29.303 26.2306 29.532 26.6121V26.764H10.4799Z" fill="white"/>
</g>
</g>
</svg>
