<svg width="48" height="32" viewBox="0 0 48 32" fill="none" xmlns="http://www.w3.org/2000/svg">
<path id="Vector" d="M30.5455 19.7826C24.72 19.7826 13.0909 22.343 13.0909 27.4831V31.3334H48V27.4831C48 22.343 36.3709 19.7826 30.5455 19.7826ZM10.9091 12.0821V6.30665H6.54545V12.0821H0V15.9323H6.54545V21.7077H10.9091V15.9323H17.4545V12.0821M30.5455 15.9323C32.8601 15.9323 35.0799 15.121 36.7166 13.6769C38.3532 12.2328 39.2727 10.2741 39.2727 8.23178C39.2727 6.18948 38.3532 4.23081 36.7166 2.78668C35.0799 1.34255 32.8601 0.53125 30.5455 0.53125C28.2308 0.53125 26.011 1.34255 24.3743 2.78668C22.7377 4.23081 21.8182 6.18948 21.8182 8.23178C21.8182 10.2741 22.7377 12.2328 24.3743 13.6769C26.011 15.121 28.2308 15.9323 30.5455 15.9323Z" fill="#03428E"/>
</svg>
