<svg width="26" height="26" viewBox="0 0 26 26" fill="none" xmlns="http://www.w3.org/2000/svg">
<path id="Vector" d="M1 10.6C1.936 6.0208 5.404 2.356 9.8872 1.108C10.264 1.0036 10.4512 0.9508 10.5532 1.0624C10.6552 1.1752 10.5796 1.36 10.4308 1.732L9.4 4M15.4 1C19.9792 1.936 23.644 5.404 24.892 9.8872C24.9964 10.264 25.0492 10.4512 24.9376 10.5532C24.8248 10.6552 24.64 10.5796 24.268 10.4308L22 9.4M25 15.4C24.064 19.9792 20.596 23.644 16.1128 24.892C15.736 24.9964 15.5488 25.0492 15.4468 24.9376C15.3448 24.8248 15.4204 24.64 15.5692 24.268L16.6 22M10.6 25C6.0208 24.064 2.356 20.596 1.108 16.1128C1.0036 15.736 0.9508 15.5488 1.0624 15.4468C1.1752 15.3448 1.36 15.4204 1.732 15.5692L4 16.6M8.9356 12.598L13.1344 7.2076C13.4632 6.7864 14.0788 7.0492 14.0788 7.6108V11.782C14.0788 12.118 14.3188 12.3916 14.6176 12.3916H16.66C17.1232 12.3916 17.3704 13.0084 17.0644 13.402L12.8656 18.7924C12.5368 19.2136 11.9212 18.9508 11.9212 18.3892V14.218C11.9212 13.882 11.6812 13.6084 11.3824 13.6084H9.34C8.8768 13.6084 8.6284 12.9916 8.9356 12.598Z" stroke="#3069B3" stroke-width="1.5" stroke-linecap="round" stroke-linejoin="round"/>
</svg>
