<svg width="27" height="33" viewBox="0 0 27 33" fill="none" xmlns="http://www.w3.org/2000/svg">
<path id="Vector" d="M13.95 11.145L10.32 7.5H18.75V12.75H21V5.25H10.32L13.95 1.605L12.36 0L6 6.375L12.36 12.75L13.95 11.145ZM13.5 18.75C12.61 18.75 11.74 19.0139 10.9999 19.5084C10.2599 20.0029 9.68314 20.7057 9.34254 21.5279C9.00195 22.3502 8.91283 23.255 9.08647 24.1279C9.2601 25.0008 9.68868 25.8026 10.318 26.432C10.9474 27.0613 11.7492 27.4899 12.6221 27.6635C13.495 27.8372 14.3998 27.7481 15.2221 27.4075C16.0443 27.0669 16.7471 26.4901 17.2416 25.7501C17.7361 25.01 18 24.14 18 23.25C18 22.0565 17.5259 20.9119 16.682 20.068C15.8381 19.2241 14.6935 18.75 13.5 18.75ZM0 14.25V32.25H27V14.25M24 26.25C23.2043 26.25 22.4413 26.5661 21.8787 27.1287C21.3161 27.6913 21 28.4543 21 29.25H6C6 28.4543 5.68393 27.6913 5.12132 27.1287C4.55871 26.5661 3.79565 26.25 3 26.25V20.25C3.79565 20.25 4.55871 19.9339 5.12132 19.3713C5.68393 18.8087 6 18.0457 6 17.25H21C21 18.0457 21.3161 18.8087 21.8787 19.3713C22.4413 19.9339 23.2043 20.25 24 20.25V26.25Z" fill="#3069B3"/>
</svg>
