<svg width="40" height="33" viewBox="0 0 40 33" fill="none" xmlns="http://www.w3.org/2000/svg">
<path id="Vector" d="M36.3636 0.117188H3.63636C2.67194 0.117188 1.74702 0.455231 1.06507 1.05695C0.383116 1.65867 0 2.47478 0 3.32574V22.5771C0 23.428 0.383116 24.2441 1.06507 24.8459C1.74702 25.4476 2.67194 25.7856 3.63636 25.7856H16.3636V28.9942H12.7273V32.2027H27.2727V28.9942H23.6364V25.7856H36.3636C37.3281 25.7856 38.253 25.4476 38.9349 24.8459C39.6169 24.2441 40 23.428 40 22.5771V3.32574C40 2.47478 39.6169 1.65867 38.9349 1.05695C38.253 0.455231 37.3281 0.117188 36.3636 0.117188ZM36.3636 11.3471H23.6364V14.5557H36.3636V22.5771H3.63636V14.5557H12.7273V19.3685L20 12.9514L12.7273 6.5343V11.3471H3.63636V3.32574H36.3636V11.3471Z" fill="#03428E"/>
</svg>
