<svg width="40" height="40" viewBox="0 0 40 40" fill="none" xmlns="http://www.w3.org/2000/svg">
<path id="Vector" d="M20 0C16.0444 0 12.1776 1.17298 8.8886 3.37061C5.59962 5.56823 3.03617 8.69181 1.52242 12.3463C0.00866568 16.0009 -0.387401 20.0222 0.384303 23.9018C1.15601 27.7814 3.06082 31.3451 5.85787 34.1421C8.65492 36.9392 12.2186 38.844 16.0982 39.6157C19.9778 40.3874 23.9992 39.9913 27.6537 38.4776C31.3082 36.9638 34.4318 34.4004 36.6294 31.1114C38.827 27.8224 40 23.9556 40 20C40 14.6957 37.8929 9.60859 34.1421 5.85786C30.3914 2.10714 25.3043 0 20 0ZM22 32H18V28H22V32ZM27.42 16.8C27.2787 17.3248 27.056 17.8242 26.76 18.28C26.483 18.6821 26.1609 19.0511 25.8 19.38L24.72 20.34C24.3 20.7 23.9 21.04 23.56 21.38C23.1935 21.7052 22.8768 22.0826 22.62 22.5C22.3261 22.9593 22.1161 23.4672 22 24C21.8384 24.654 21.7644 25.3265 21.78 26H18.16C18.1486 25.1644 18.1954 24.3291 18.3 23.5C18.3805 22.8793 18.5488 22.2733 18.8 21.7C19.009 21.217 19.2851 20.7659 19.62 20.36C19.9659 19.9346 20.3546 19.5459 20.78 19.2C21.12 18.88 21.46 18.6 21.8 18.32C22.1161 18.0569 22.4043 17.762 22.66 17.44C22.9228 17.1112 23.1258 16.7389 23.26 16.34C23.4209 15.8775 23.4954 15.3894 23.48 14.9C23.4889 14.3091 23.3731 13.723 23.14 13.18C22.9466 12.7597 22.6695 12.3832 22.3256 12.0737C21.9817 11.7642 21.5783 11.5282 21.14 11.38C20.8186 11.2634 20.4815 11.196 20.14 11.18C19.5573 11.1365 18.973 11.238 18.439 11.4753C17.9051 11.7126 17.4382 12.0784 17.08 12.54C16.3637 13.6141 16.013 14.8907 16.08 16.18H12.32C12.3005 15.0352 12.4903 13.8965 12.88 12.82C13.2239 11.8561 13.7694 10.9765 14.48 10.24C15.2157 9.52353 16.0857 8.95941 17.04 8.58C18.1015 8.18388 19.2271 7.98725 20.36 8C21.3389 7.99207 22.3123 8.14754 23.24 8.46C24.0822 8.74341 24.8628 9.1846 25.54 9.76C26.2057 10.3469 26.7377 11.0698 27.1 11.88C27.4977 12.7943 27.6954 13.7831 27.68 14.78C27.6952 15.4626 27.6076 16.1435 27.42 16.8Z" fill="#03428E"/>
</svg>
