<svg width="44" height="38" viewBox="0 0 44 38" fill="none" xmlns="http://www.w3.org/2000/svg">
<path id="Vector" d="M29.2727 24.6943C29.2727 22.9215 23.5745 21.4857 16.5455 21.4857M29.2727 24.6943C29.2727 26.467 23.5745 27.9028 16.5455 27.9028C9.51636 27.9028 3.81818 26.467 3.81818 24.6943M29.2727 24.6943V32.6146C29.2727 34.4419 23.5745 35.9242 16.5455 35.9242C9.51636 35.9242 3.81818 34.4435 3.81818 32.6146V24.6943M29.2727 24.6943C36.2255 24.6943 42 23.1108 42 21.4857V5.44293M16.5455 21.4857C9.51636 21.4857 3.81818 22.9215 3.81818 24.6943M16.5455 21.4857C8.51273 21.4857 2 19.9023 2 18.2772V10.2558M16.5455 7.04721C8.51273 7.04721 2 8.48304 2 10.2558M2 10.2558C2 12.0285 8.51273 13.4643 16.5455 13.4643C16.5455 15.0895 22.46 16.6729 29.4127 16.6729C36.3655 16.6729 42 15.0895 42 13.4643M42 5.44293C42 3.6702 36.3636 2.23438 29.4127 2.23438C22.4618 2.23438 16.8255 3.6702 16.8255 5.44293M42 5.44293C42 7.21566 36.3636 8.65149 29.4127 8.65149C22.4618 8.65149 16.8255 7.21566 16.8255 5.44293M16.8255 5.44293V21.752" stroke="#03428E" stroke-width="4"/>
</svg>
