<svg width="48" height="31" viewBox="0 0 48 31" fill="none" xmlns="http://www.w3.org/2000/svg">
<path id="Vector" d="M30.5455 0C28.2308 0 26.011 0.811304 24.3743 2.25543C22.7377 3.69956 21.8182 5.65823 21.8182 7.70053C21.8182 9.74284 22.7377 11.7015 24.3743 13.1456C26.011 14.5898 28.2308 15.4011 30.5455 15.4011C32.8601 15.4011 35.0799 14.5898 36.7166 13.1456C38.3532 11.7015 39.2727 9.74284 39.2727 7.70053C39.2727 5.65823 38.3532 3.69956 36.7166 2.25543C35.0799 0.811304 32.8601 0 30.5455 0ZM30.5455 3.65775C31.1471 3.65775 31.743 3.76232 32.2988 3.96549C32.8547 4.16866 33.3598 4.46645 33.7853 4.84186C34.2108 5.21726 34.5482 5.66294 34.7785 6.15343C35.0088 6.64392 35.1273 7.16963 35.1273 7.70053C35.1273 8.23144 35.0088 8.75715 34.7785 9.24764C34.5482 9.73813 34.2108 10.1838 33.7853 10.5592C33.3598 10.9346 32.8547 11.2324 32.2988 11.4356C31.743 11.6387 31.1471 11.7433 30.5455 11.7433C29.9438 11.7433 29.348 11.6387 28.7921 11.4356C28.2362 11.2324 27.7311 10.9346 27.3056 10.5592C26.8802 10.1838 26.5427 9.73813 26.3124 9.24764C26.0821 8.75715 25.9636 8.23144 25.9636 7.70053C25.9636 6.62832 26.4464 5.60003 27.3056 4.84186C28.1649 4.08369 29.3303 3.65775 30.5455 3.65775ZM6.54545 5.7754V11.5508H0V15.4011H6.54545V21.1765H10.9091V15.4011H17.4545V11.5508H10.9091V5.7754H6.54545ZM30.5455 17.3262C24.72 17.3262 13.0909 19.8866 13.0909 25.0267V30.8021H48V25.0267C48 19.8866 36.3709 17.3262 30.5455 17.3262ZM30.5455 20.984C37.0255 20.984 43.8545 23.7947 43.8545 25.0267V27.1444H17.2364V25.0267C17.2364 23.7947 24 20.984 30.5455 20.984Z" fill="#03428E"/>
</svg>
